<svg version="1.1" id="Layer_1" xmlns="http://www.w3.org/2000/svg" xmlns:xlink="http://www.w3.org/1999/xlink" x="0px" y="0px"
	 width="100%" viewBox="0 0 1387 1392" enable-background="new 0 0 1387 1392" xml:space="preserve">
<path fill="#29327A" opacity="1.000000" stroke="none" 
	d="
M1388.000000,661.000000 
	C1388.000000,684.354248 1388.000000,707.708435 1387.604004,731.718689 
	C1385.807495,748.896729 1384.808960,765.465637 1382.887939,781.926941 
	C1381.116455,797.106628 1378.497192,812.194397 1375.996948,827.280457 
	C1371.704102,853.184875 1364.846436,878.464050 1357.164307,903.545715 
	C1348.396973,932.170288 1337.773682,960.096436 1325.214966,987.241638 
	C1311.448486,1016.997437 1296.302856,1046.119263 1277.920166,1073.277954 
	C1262.985229,1095.343018 1246.874756,1116.650635 1230.542114,1137.717773 
	C1220.194946,1151.064331 1208.930176,1163.778076 1197.285522,1176.022949 
	C1177.240112,1197.102173 1156.277100,1217.283936 1133.267212,1235.175171 
	C1118.494385,1246.661499 1103.748291,1258.219116 1088.480225,1269.024048 
	C1056.789551,1291.451416 1023.262085,1310.806030 987.944824,1326.985229 
	C976.033936,1332.441528 964.238953,1338.268677 951.981079,1342.823120 
	C930.959717,1350.633301 909.788086,1358.137329 888.353210,1364.704956 
	C871.216614,1369.955566 853.730713,1374.302246 836.152527,1377.811768 
	C817.027344,1381.630127 797.658997,1384.335083 778.316223,1386.924316 
	C764.360535,1388.792358 750.291016,1389.931885 736.238708,1390.917358 
	C725.512451,1391.669556 714.732910,1391.654297 703.979492,1392.046387 
	C703.309021,1392.070557 702.659363,1392.668823 702.000000,1393.000000 
	C695.978821,1393.000000 689.957703,1393.000000 683.280212,1392.603516 
	C671.874084,1391.805420 661.103882,1391.692139 650.379456,1390.931885 
	C635.496887,1389.877075 620.602234,1388.714844 605.798645,1386.898438 
	C590.789124,1385.057007 575.836914,1382.629761 560.943054,1379.988525 
	C528.875488,1374.301636 497.599701,1365.611816 466.773468,1355.097534 
	C434.874939,1344.217651 403.785492,1331.470093 374.149994,1315.454468 
	C353.916901,1304.520142 333.768860,1293.286865 314.454285,1280.835327 
	C296.047180,1268.968994 278.300934,1255.942017 261.126038,1242.337280 
	C243.514923,1228.386963 226.475723,1213.623047 210.073349,1198.267578 
	C196.796677,1185.838379 184.610519,1172.208252 172.363480,1158.726685 
	C162.445709,1147.809082 152.449951,1136.838257 143.748734,1124.967529 
	C129.176651,1105.087524 115.358955,1084.638184 101.682114,1064.122925 
	C85.546707,1039.919678 72.406441,1014.035889 60.230259,987.655396 
	C46.666782,958.269165 34.649986,928.263733 26.082239,897.036743 
	C19.839109,874.282288 14.362344,851.303406 9.138192,828.289673 
	C6.694808,817.525940 5.703648,806.435730 3.961246,795.508362 
	C3.081104,789.988525 1.993702,784.501709 1.000005,779.000000 
	C1.000000,724.645752 1.000000,670.291565 1.389257,615.291504 
	C2.849308,606.553589 3.671358,598.419006 5.042455,590.378052 
	C7.935151,573.413696 10.351357,556.316223 14.333980,539.600037 
	C23.028940,503.104950 34.298817,467.407898 48.573338,432.621674 
	C60.592644,403.331268 74.331123,374.925690 90.245819,347.635864 
	C105.623840,321.266266 122.815742,296.077484 141.415955,271.781555 
	C159.349594,248.356293 178.922379,226.440491 199.497177,205.444870 
	C212.860214,191.808533 227.253189,179.097031 241.901779,166.827255 
	C258.650238,152.798599 275.706299,139.033249 293.503784,126.384789 
	C321.533722,106.464264 351.065552,88.813118 381.967529,73.680313 
	C399.386383,65.150223 417.081177,56.982208 435.226776,50.186771 
	C459.702820,41.020596 484.457611,32.360683 509.592896,25.251713 
	C542.571777,15.924337 576.193848,9.111554 610.430481,6.012682 
	C626.946838,4.517727 643.492065,3.343389 660.019836,1.970428 
	C661.364197,1.858757 662.674072,1.333224 664.000000,1.000000 
	C682.687561,1.000000 701.375122,1.000000 720.719238,1.396274 
	C732.718323,2.527299 744.097290,2.910989 755.394714,4.080859 
	C771.465942,5.745065 787.562927,7.470983 803.492432,10.113756 
	C823.001343,13.350381 842.606995,16.579184 861.699829,21.601776 
	C885.096313,27.756512 908.158081,35.313774 931.085999,43.086426 
	C959.612854,52.757168 986.984558,65.224861 1013.676331,79.210449 
	C1042.886719,94.515785 1071.381470,111.038780 1097.594482,131.071503 
	C1119.904175,148.121109 1141.754517,165.813171 1163.174072,183.968948 
	C1174.106567,193.235550 1183.847900,203.953323 1193.760132,214.364883 
	C1203.875122,224.989349 1213.906372,235.736069 1223.308105,246.985947 
	C1234.915649,260.875214 1246.177490,275.084930 1256.978882,289.609589 
	C1276.650879,316.061920 1294.090698,344.012329 1308.892700,373.442017 
	C1320.307251,396.136597 1331.259888,419.166504 1340.625488,442.758850 
	C1349.604736,465.377594 1357.260620,488.641510 1363.723022,512.110657 
	C1372.773804,544.980042 1379.992798,578.338013 1383.015625,612.431824 
	C1384.348267,627.461670 1385.656738,642.493652 1387.029785,657.519836 
	C1387.137695,658.699585 1387.666748,659.840820 1388.000000,661.000000 
M741.324280,1270.459717 
	C741.379395,1270.237061 741.434509,1270.014526 741.489685,1269.791870 
	C741.266663,1270.037354 741.043701,1270.282837 741.580933,1269.964600 
	C735.878052,1252.247192 730.255798,1234.502930 724.395813,1216.837646 
	C723.376221,1213.763916 723.919739,1212.063721 726.527893,1210.252563 
	C734.048584,1205.030273 741.404968,1199.571045 748.814697,1194.189575 
	C756.395813,1188.683716 763.963623,1183.159546 772.655212,1176.829224 
	C756.121460,1176.829224 741.012878,1176.854126 725.904541,1176.814209 
	C721.257324,1176.801880 715.327454,1178.312378 712.314026,1176.038696 
	C709.113770,1173.624146 708.556885,1167.583130 707.061340,1163.054443 
	C702.274780,1148.561279 697.588135,1134.035034 692.557190,1118.582642 
	C686.546509,1137.044067 680.719604,1154.497192 675.261230,1172.064941 
	C674.114807,1175.755005 672.557068,1176.965820 668.721008,1176.919067 
	C651.727966,1176.711060 634.730957,1176.821899 617.735352,1176.843506 
	C616.377136,1176.845215 615.019226,1177.045410 612.922363,1177.212158 
	C628.456360,1188.490479 643.215698,1199.302368 658.105225,1209.932007 
	C660.931580,1211.949707 661.757202,1213.695679 660.564819,1217.213501 
	C655.122681,1233.268433 650.002930,1249.433350 644.862976,1265.589111 
	C644.351318,1267.197266 644.487732,1269.011475 644.072632,1270.311646 
	C643.985413,1270.179810 643.898254,1270.047974 643.811096,1269.916138 
	C643.980103,1270.185913 644.149170,1270.455688 644.588501,1270.065796 
	C660.521057,1258.417969 676.453613,1246.770142 692.588257,1234.974609 
	C708.745850,1246.833252 724.791199,1258.609619 741.324280,1270.459717 
M1147.719604,766.895447 
	C1162.265381,756.323120 1176.895264,745.863098 1191.291504,735.090881 
	C1194.456543,732.722534 1196.460083,732.998901 1199.441772,735.216492 
	C1213.066040,745.349426 1226.862915,755.250732 1240.609375,765.219177 
	C1241.568359,765.914551 1242.621948,766.479370 1244.643311,767.732117 
	C1238.189331,747.821899 1232.112305,729.074524 1225.956055,710.082764 
	C1242.218384,698.243530 1258.345947,686.502380 1274.473633,674.761230 
	C1274.326050,674.452209 1274.178589,674.143250 1274.031006,673.834229 
	C1254.093262,673.834229 1234.155396,673.834229 1214.171509,673.834229 
	C1207.918579,654.617859 1201.759766,635.690674 1195.518555,616.510376 
	C1195.010498,617.286316 1194.507690,617.788818 1194.312622,618.390991 
	C1188.883545,635.145813 1183.370361,651.875244 1178.170044,668.701172 
	C1176.982422,672.543701 1175.551880,674.223938 1171.125122,674.128357 
	C1155.469849,673.790588 1139.802856,673.996887 1124.140381,673.996887 
	C1121.577026,673.996887 1119.013672,673.996887 1115.254639,673.996887 
	C1117.093262,675.429138 1117.824341,676.033081 1118.589722,676.589966 
	C1132.727661,686.875916 1146.810669,697.239197 1161.061279,707.366821 
	C1163.859985,709.355835 1164.427612,711.009949 1163.321533,714.303711 
	C1157.501099,731.637207 1151.975464,749.069702 1146.144165,766.916870 
	C1146.254150,767.205078 1146.364014,767.493225 1146.473999,767.781433 
	C1146.667236,767.540527 1146.860352,767.299561 1147.719604,766.895447 
M141.000336,767.036133 
	C142.131607,766.451599 143.358109,765.999146 144.379822,765.262695 
	C158.425842,755.137695 172.511261,745.064636 186.409393,734.739685 
	C189.084747,732.752136 190.764786,732.882263 193.293716,734.773621 
	C203.025543,742.051819 212.913712,749.121216 222.751007,756.258240 
	C227.999100,760.065613 233.262405,763.852112 239.343628,768.243713 
	C233.261932,749.472778 227.622391,731.759155 221.718643,714.134094 
	C220.681366,711.037415 221.153549,709.441528 223.811157,707.550293 
	C238.055878,697.413330 252.154663,687.071228 266.289032,676.779663 
	C267.222626,676.099915 268.032440,675.250244 269.443512,673.996582 
	C250.246552,673.996582 231.920151,673.934204 213.594925,674.053345 
	C210.245514,674.075134 208.344864,673.555908 207.223145,669.754822 
	C203.413071,656.843994 199.067688,644.090820 194.902069,631.285461 
	C193.331131,626.456238 191.692825,621.648926 189.787552,615.939636 
	C183.250671,635.999878 177.052338,655.021118 170.760773,674.328491 
	C150.430099,674.328491 130.590012,674.328491 109.988586,674.328491 
	C125.810638,685.822876 140.857178,696.835449 156.019913,707.685669 
	C158.433243,709.412537 159.161377,710.879822 158.055267,713.791565 
	C155.874588,719.532043 154.177094,725.454651 152.222183,731.282593 
	C148.269562,743.066101 144.278503,754.836731 140.634521,766.919373 
	C140.746307,766.982178 140.858078,767.044922 140.969849,767.107727 
	C140.849030,767.035889 140.720001,766.974670 140.609726,766.889221 
	C140.499283,766.803711 140.407608,766.694031 141.000336,767.036133 
M645.004395,264.125061 
	C656.449158,255.814682 667.881348,247.486938 679.345154,239.202927 
	C683.650391,236.091873 688.077820,230.614761 692.360962,230.699371 
	C696.923645,230.789505 701.446899,236.094589 705.872559,239.282181 
	C717.708374,247.807007 729.482727,256.417236 742.086975,265.578949 
	C736.121460,247.122543 730.625122,229.572754 724.690430,212.172501 
	C723.350952,208.245224 724.177734,206.396790 727.381409,204.135208 
	C741.246948,194.346695 754.920471,184.286011 768.649292,174.304337 
	C769.706604,173.535599 770.651245,172.611923 772.355103,171.156494 
	C752.707825,171.156494 734.232544,171.078186 715.759216,171.232712 
	C712.640503,171.258804 711.044617,170.513336 710.062622,167.376343 
	C704.801697,150.569809 699.330872,133.828934 693.905273,117.074188 
	C693.598816,116.127838 693.050415,115.259811 692.340027,113.785515 
	C686.458984,131.820618 680.649292,149.135223 675.253662,166.577896 
	C674.077820,170.379333 672.365479,171.286621 668.648010,171.243500 
	C651.496399,171.044510 634.341187,171.148285 617.187256,171.159653 
	C615.970703,171.160446 614.754272,171.290985 612.524353,171.419693 
	C629.591309,183.844086 645.796082,195.640839 661.899719,207.363968 
	C660.581299,211.396179 659.417053,214.862091 658.313843,218.347321 
	C653.505737,233.536865 648.715393,248.732010 643.466736,264.047699 
	C643.513916,264.299164 643.561096,264.550629 643.608276,264.802094 
	C643.857300,264.644379 644.106384,264.486633 645.004395,264.125061 
M683.754761,736.111328 
	C683.783325,710.956238 684.211304,685.791321 683.589111,660.652344 
	C683.410095,653.419128 681.422058,645.645691 678.159119,639.182312 
	C667.942688,618.945007 649.494629,611.010498 628.115601,610.060852 
	C605.836426,609.071289 583.488586,609.669373 561.172241,609.438843 
	C556.624878,609.391846 555.089600,611.259399 555.097229,615.723267 
	C555.190796,670.200256 555.188354,724.677490 555.102173,779.154541 
	C555.095032,783.678589 556.733398,785.316833 561.287903,785.248657 
	C575.112366,785.041809 588.943909,785.318420 602.768799,785.128418 
	C613.908630,784.975281 625.177490,785.380615 636.152527,783.845947 
	C661.481567,780.304321 681.379395,763.497070 683.754761,736.111328 
M980.718994,763.737793 
	C972.128052,745.863708 963.537048,727.989624 954.928345,710.078552 
	C956.208984,709.287354 956.721497,708.823242 957.322205,708.620850 
	C976.068726,702.304504 989.629211,684.516296 988.103271,658.105225 
	C986.542603,631.092712 967.312927,610.821594 940.281555,609.992554 
	C915.322205,609.227112 890.327271,609.643066 865.348633,609.458496 
	C861.397095,609.429260 859.751831,610.816040 859.759827,615.028687 
	C859.864136,669.996521 859.856140,724.964722 859.772522,779.932617 
	C859.766602,783.827576 861.138611,785.307190 865.016541,785.220581 
	C872.674927,785.049438 880.339783,785.177185 888.002014,785.169312 
	C895.118958,785.161926 895.167725,785.113953 895.169495,777.819397 
	C895.174438,757.830994 895.284973,737.841492 895.080566,717.855164 
	C895.036926,713.592407 896.469482,712.228455 900.551758,712.453491 
	C905.201538,712.709839 909.903076,712.822388 914.532776,712.424194 
	C919.061707,712.034729 921.300354,713.714844 923.129822,717.895020 
	C932.319519,738.892456 941.867493,759.732971 951.260498,780.641663 
	C952.392944,783.162476 953.478271,785.287781 956.922180,785.227844 
	C966.580322,785.059692 976.243774,785.111450 985.904053,785.199158 
	C989.618530,785.232849 990.306641,783.668762 988.816589,780.585876 
	C986.213501,775.200134 983.600769,769.819031 980.718994,763.737793 
M528.189453,660.036682 
	C527.189453,643.917419 519.875183,631.101807 507.303680,621.328430 
	C491.220490,608.824951 472.546173,606.024353 452.935638,608.200500 
	C421.591064,611.678589 400.397736,633.022522 398.803711,664.235352 
	C397.674988,686.336670 397.996765,708.563904 398.776886,730.695923 
	C399.521271,751.814392 409.497894,768.210510 428.111908,778.673462 
	C444.553101,787.915100 462.394653,789.032898 480.490204,785.667236 
	C506.498352,780.830017 523.587097,764.007019 527.193848,737.771973 
	C529.220032,723.033813 528.255066,707.868225 528.247864,692.895386 
	C528.247253,691.595520 525.341431,689.187927 523.760010,689.166687 
	C504.433624,688.907104 485.102478,689.018005 465.772675,688.978882 
	C462.378296,688.971985 460.952972,690.570129 460.980927,693.872986 
	C461.035889,700.371399 461.066986,706.871521 460.970856,713.368896 
	C460.915894,717.083862 462.694183,718.311340 466.218414,718.215149 
	C472.046326,718.056091 477.882233,718.127380 483.713989,718.182556 
	C494.423798,718.283875 493.495178,716.544128 493.463135,728.121887 
	C493.441498,735.925781 492.528900,743.603943 486.189117,749.125061 
	C476.119324,757.894409 464.456360,758.664673 452.490967,754.278320 
	C440.867950,750.017395 434.467957,740.965698 434.172791,728.744629 
	C433.670044,707.927307 433.754974,687.084595 434.109497,666.261353 
	C434.384277,650.120911 446.203766,638.623718 462.024841,638.174011 
	C479.748779,637.670227 491.180817,647.327576 492.788025,664.431396 
	C493.132874,668.100952 494.744812,669.276245 498.209686,669.213501 
	C505.705872,669.077881 513.206238,669.174988 520.704895,669.171997 
	C528.498657,669.168884 528.822998,668.812256 528.189453,660.036682 
M795.900940,610.565247 
	C794.423401,610.339844 792.947876,609.932251 791.468079,609.916199 
	C765.666504,609.636047 739.864319,609.414612 714.062561,609.150574 
	C709.856323,609.107544 708.761658,611.371033 708.780334,615.200684 
	C708.880249,635.687012 708.827087,656.174133 708.827087,676.660950 
	C708.827026,710.639160 708.820618,744.617310 708.833191,778.595520 
	C708.835449,784.757874 709.241638,785.148499 715.344788,785.168091 
	C721.840576,785.189026 728.336426,785.172974 734.832275,785.172913 
	C744.513794,785.172852 744.514465,785.172852 744.514832,775.718079 
	C744.515503,757.729614 744.603027,739.740356 744.443054,721.753357 
	C744.410278,718.061462 745.468750,716.840515 749.251831,716.921448 
	C760.239807,717.156433 771.236267,716.952332 782.228882,717.014587 
	C813.059631,717.189270 839.472412,696.801819 838.141541,660.715210 
	C837.220276,635.737122 821.254639,615.689331 795.900940,610.565247 
M294.968811,983.467712 
	C292.620972,976.215820 290.273132,968.963928 287.842590,961.456604 
	C304.091705,949.624390 320.219299,937.880615 337.254028,925.476318 
	C317.435455,925.476318 298.984100,925.386780 280.535156,925.555847 
	C277.064362,925.587708 275.716248,924.428833 274.683960,921.143738 
	C269.137390,903.493103 263.287018,885.937866 257.368164,867.818848 
	C256.779724,868.846008 256.359467,869.356628 256.170563,869.941833 
	C250.711472,886.856323 245.184296,903.749878 239.909531,920.721924 
	C238.795258,924.307129 237.191452,925.734619 233.293610,925.574829 
	C225.312057,925.247498 217.307678,925.476807 209.312698,925.476868 
	C198.952591,925.476868 188.592484,925.476868 177.164841,925.476868 
	C179.339249,927.099609 180.627045,928.082214 181.936661,929.034851 
	C195.532227,938.923767 209.066055,948.899902 222.780960,958.620483 
	C225.756348,960.729248 226.345169,962.546082 225.120804,965.991455 
	C221.671753,975.696838 218.658768,985.557312 215.489349,995.361755 
	C212.996155,1003.074402 210.525894,1010.794495 207.684647,1019.633667 
	C224.903931,1007.140625 241.032776,995.438721 257.178589,983.724487 
	C273.545837,995.596069 289.576691,1007.223694 306.750854,1019.680603 
	C302.583435,1006.922241 298.879120,995.581665 294.968811,983.467712 
M473.572754,1144.164917 
	C489.175903,1132.828003 504.779083,1121.491211 521.314636,1109.476929 
	C501.573944,1109.476929 483.276886,1109.404175 464.981384,1109.541016 
	C461.523865,1109.566895 459.809448,1108.803955 458.661621,1105.096680 
	C453.201782,1087.462402 447.302734,1069.964233 441.299561,1051.621826 
	C440.632080,1053.303833 440.231873,1054.172363 439.937378,1055.075317 
	C434.632111,1071.341309 429.125061,1087.546875 424.181610,1103.922363 
	C422.788696,1108.536377 420.683258,1109.745239 416.140076,1109.585815 
	C406.158356,1109.235596 396.155823,1109.477173 386.161804,1109.477173 
	C378.266602,1109.477173 370.371399,1109.477173 361.348206,1109.477173 
	C363.523773,1111.159302 364.765717,1112.170654 366.059021,1113.111572 
	C379.788818,1123.098633 393.495789,1133.117676 407.292236,1143.012085 
	C409.654449,1144.706177 410.510315,1146.184082 409.369415,1149.177734 
	C407.182465,1154.916504 405.537994,1160.861328 403.642242,1166.712036 
	C399.766846,1178.672485 395.874176,1190.627319 391.632416,1203.680542 
	C408.797089,1191.237549 425.013123,1179.482300 441.204346,1167.744873 
	C457.629852,1179.662476 473.635834,1191.275757 490.206818,1203.298950 
	C489.890839,1201.689941 489.803375,1200.735352 489.514130,1199.846680 
	C484.115479,1183.258667 478.653809,1166.690918 473.335052,1150.077393 
	C472.797638,1148.398682 473.092865,1146.453613 473.572754,1144.164917 
M878.976685,1120.499146 
	C890.383118,1128.807983 901.789612,1137.116699 913.255554,1145.468872 
	C907.010254,1164.733887 900.886597,1183.623535 894.448975,1203.481812 
	C896.484192,1202.091187 897.590088,1201.374878 898.654785,1200.602051 
	C912.389465,1190.631958 926.191589,1180.752197 939.791199,1170.601074 
	C942.782166,1168.368530 944.823364,1167.834351 947.864380,1170.454224 
	C951.759277,1173.809814 956.137329,1176.605225 960.312439,1179.634766 
	C971.038879,1187.417969 981.768250,1195.197144 993.278442,1203.545288 
	C992.808655,1201.833130 992.631470,1201.070801 992.391174,1200.328857 
	C986.915344,1183.421509 981.548889,1166.476929 975.852844,1149.643921 
	C974.715393,1146.282593 975.429932,1144.685913 978.179199,1142.733154 
	C992.154358,1132.806763 1005.977234,1122.665527 1019.842529,1112.584595 
	C1020.952698,1111.777466 1021.979492,1110.855713 1023.671509,1109.476685 
	C1004.325562,1109.476685 985.904175,1109.396362 967.484741,1109.550293 
	C964.147522,1109.578247 962.473633,1108.737305 961.430847,1105.347778 
	C957.083130,1091.217163 952.429932,1077.180298 947.859924,1063.118408 
	C946.674927,1059.472168 945.385193,1055.859863 943.845215,1051.359863 
	C937.801270,1069.983154 932.006653,1087.477661 926.513550,1105.066406 
	C925.406738,1108.610352 923.721619,1109.708740 920.154236,1109.553589 
	C913.837891,1109.279175 907.500977,1109.476807 901.172668,1109.476807 
	C889.130188,1109.476929 877.087646,1109.476929 863.810364,1109.476929 
	C869.341125,1113.500000 873.865723,1116.791138 878.976685,1120.499146 
M1099.695557,1004.166260 
	C1108.051880,998.106018 1116.476807,992.136658 1124.722046,985.928894 
	C1127.118530,984.124573 1128.737915,984.115662 1131.160034,985.930786 
	C1141.417847,993.617920 1151.840576,1001.085510 1162.212646,1008.620056 
	C1166.963501,1012.071350 1171.736572,1015.492126 1177.474121,1019.629333 
	C1171.355591,1000.756775 1165.724731,983.058533 1159.811035,965.455322 
	C1158.759155,962.324097 1159.333496,960.760010 1161.937500,958.902832 
	C1176.172119,948.750183 1190.276245,938.414429 1204.411621,928.123169 
	C1205.347046,927.442200 1206.171875,926.609192 1207.474243,925.476318 
	C1188.178589,925.476318 1169.696655,925.420349 1151.215698,925.531311 
	C1148.127441,925.549805 1146.531372,924.822205 1145.565674,921.541077 
	C1142.562134,911.336060 1139.119507,901.259705 1135.810425,891.145447 
	C1133.321045,883.536194 1130.774780,875.945496 1127.877075,867.210938 
	C1121.896851,885.725708 1116.228027,902.907898 1110.857666,920.182983 
	C1109.635986,924.112305 1107.974731,925.722412 1103.597778,925.597229 
	C1091.443359,925.249817 1079.272461,925.476807 1067.108154,925.476868 
	C1061.074463,925.476868 1055.040649,925.476868 1047.830444,925.476868 
	C1064.931885,937.918335 1081.036255,949.634338 1097.266846,961.442261 
	C1091.046387,980.643860 1084.920044,999.554993 1078.403320,1019.671143 
	C1086.017212,1014.135498 1092.571655,1009.370178 1099.695557,1004.166260 
M259.887085,372.597626 
	C259.095245,370.260345 258.303406,367.923065 257.268311,364.867767 
	C256.638245,366.377930 256.275024,367.100464 256.028564,367.860870 
	C250.547180,384.771484 245.005280,401.663208 239.672333,418.620605 
	C238.659729,421.840454 237.210022,422.986725 233.716354,422.925995 
	C220.062042,422.688751 206.401184,422.829132 192.742752,422.829163 
	C188.008316,422.829163 183.273880,422.829193 177.178528,422.829193 
	C179.633820,424.618378 180.916626,425.555267 182.201599,426.489227 
	C195.667328,436.276489 209.077286,446.142242 222.644897,455.786133 
	C225.496841,457.813293 226.484497,459.478760 225.192307,463.074646 
	C221.711090,472.762299 218.751114,482.637177 215.579895,492.436340 
	C213.060196,500.222290 210.534088,508.006134 207.641525,516.930237 
	C224.837189,504.449341 240.970093,492.739807 257.166962,480.983856 
	C273.440735,492.782837 289.478271,504.410522 306.569916,516.802490 
	C305.897675,514.537292 305.643860,513.607178 305.346466,512.691162 
	C299.907532,495.937073 294.548157,479.156158 288.939545,462.459015 
	C287.967163,459.564148 288.384033,458.061829 290.904724,456.361267 
	C296.696045,452.454132 302.255341,448.203125 307.909607,444.092773 
	C317.243561,437.307465 326.578156,430.522949 337.041840,422.917236 
	C315.873840,422.917236 296.142792,422.917236 276.212158,422.917236 
	C270.763397,406.199127 265.412567,389.781494 259.887085,372.597626 
M1156.082886,501.395355 
	C1162.861938,506.314636 1169.640991,511.233887 1177.201294,516.720154 
	C1176.824341,515.072937 1176.730957,514.447266 1176.538330,513.853760 
	C1170.998169,496.784119 1165.559937,479.679779 1159.799683,462.684570 
	C1158.721680,459.503723 1159.385986,457.990479 1161.944336,456.162567 
	C1176.030151,446.097656 1189.998535,435.868256 1203.994873,425.678192 
	C1204.946655,424.985168 1205.796387,424.151825 1207.341797,422.828857 
	C1187.902344,422.828857 1169.426758,422.774353 1150.952393,422.885132 
	C1148.041382,422.902618 1146.633667,422.196381 1145.680420,419.155762 
	C1140.362549,402.191925 1134.747925,385.321014 1129.214233,368.425018 
	C1128.900146,367.465881 1128.407227,366.565277 1127.736694,365.046387 
	C1121.320190,384.765747 1115.156006,403.709839 1108.894043,422.953979 
	C1088.916016,422.953979 1069.197632,422.953979 1048.239868,422.953979 
	C1050.064697,424.340424 1050.917114,425.013855 1051.795410,425.651337 
	C1065.402588,435.526855 1078.916138,445.536133 1092.688843,455.175140 
	C1096.263428,457.676880 1097.173828,459.823700 1095.721802,464.032654 
	C1090.411743,479.423950 1085.505737,494.954803 1080.461792,510.437744 
	C1079.902832,512.153687 1079.435547,513.899414 1078.578735,516.810181 
	C1095.748413,504.343872 1111.744629,492.729614 1127.941650,480.969574 
	C1137.212891,487.709198 1146.350586,494.351807 1156.082886,501.395355 
M912.778931,276.379669 
	C906.778076,294.796814 900.777161,313.213989 894.350708,332.937347 
	C911.639954,320.393982 927.759216,308.699402 943.932922,296.965363 
	C960.294556,308.839783 976.353455,320.494507 992.898560,332.502045 
	C992.802002,331.225403 992.859619,330.722900 992.717163,330.285645 
	C987.156128,313.217682 981.704041,296.112152 975.896667,279.128174 
	C974.679810,275.569366 975.477600,273.889099 978.369385,271.834625 
	C992.348083,261.903259 1006.163025,251.741165 1020.022583,241.642395 
	C1020.963074,240.957047 1021.792480,240.119064 1023.274597,238.828857 
	C1003.839294,238.828857 985.346008,238.759216 966.854309,238.898453 
	C963.827209,238.921249 962.531555,237.986343 961.611206,235.071777 
	C956.256226,218.113907 950.673523,201.227859 945.149597,184.323486 
	C944.838135,183.370361 944.365295,182.469955 943.735352,181.005280 
	C937.323608,200.703293 931.155518,219.652863 924.817383,239.124695 
	C904.894104,239.124695 885.123108,239.124695 864.345032,239.124695 
	C879.996460,250.499695 894.690918,261.147552 909.330383,271.870544 
	C910.715271,272.884949 911.754700,274.370941 912.778931,276.379669 
M409.737976,274.204498 
	C409.637909,275.476440 409.764618,276.817902 409.399567,278.008606 
	C407.548248,284.047058 405.582520,290.050629 403.632355,296.058502 
	C399.761780,307.982483 395.875153,319.901245 391.632690,332.935883 
	C408.783997,320.486420 424.916687,308.776337 441.184723,296.968018 
	C457.426941,308.749908 473.479767,320.394379 490.517151,332.753082 
	C489.906647,330.592926 489.678131,329.666260 489.383942,328.760925 
	C483.941040,312.010162 478.561829,295.237976 472.971497,278.536530 
	C472.033264,275.733490 472.213776,274.148438 474.833496,272.400574 
	C480.642914,268.524567 486.183716,264.246307 491.837524,260.136841 
	C501.188141,253.340378 510.541473,246.547699 520.970947,238.970840 
	C499.924744,238.970840 480.211548,238.970840 460.244934,238.970840 
	C453.946747,219.619110 447.749115,200.576431 441.353271,180.924744 
	C440.733490,182.453156 440.254150,183.456650 439.912384,184.504990 
	C434.557556,200.930756 429.114105,217.329041 423.960266,233.817841 
	C422.792297,237.554565 421.263367,239.026581 417.072601,238.952316 
	C400.255585,238.654343 383.430206,238.823242 366.607910,238.840149 
	C365.233673,238.841522 363.859558,238.998306 361.663055,239.133499 
	C378.003632,251.035141 393.572876,262.374969 409.737976,274.204498 
z"/>
<path fill="#FFFFFF" opacity="1.000000" stroke="none" 
	d="
M702.468628,1393.000000 
	C702.659363,1392.668823 703.309021,1392.070557 703.979492,1392.046387 
	C714.732910,1391.654297 725.512451,1391.669556 736.238708,1390.917358 
	C750.291016,1389.931885 764.360535,1388.792358 778.316223,1386.924316 
	C797.658997,1384.335083 817.027344,1381.630127 836.152527,1377.811768 
	C853.730713,1374.302246 871.216614,1369.955566 888.353210,1364.704956 
	C909.788086,1358.137329 930.959717,1350.633301 951.981079,1342.823120 
	C964.238953,1338.268677 976.033936,1332.441528 987.944824,1326.985229 
	C1023.262085,1310.806030 1056.789551,1291.451416 1088.480225,1269.024048 
	C1103.748291,1258.219116 1118.494385,1246.661499 1133.267212,1235.175171 
	C1156.277100,1217.283936 1177.240112,1197.102173 1197.285522,1176.022949 
	C1208.930176,1163.778076 1220.194946,1151.064331 1230.542114,1137.717773 
	C1246.874756,1116.650635 1262.985229,1095.343018 1277.920166,1073.277954 
	C1296.302856,1046.119263 1311.448486,1016.997437 1325.214966,987.241638 
	C1337.773682,960.096436 1348.396973,932.170288 1357.164307,903.545715 
	C1364.846436,878.464050 1371.704102,853.184875 1375.996948,827.280457 
	C1378.497192,812.194397 1381.116455,797.106628 1382.887939,781.926941 
	C1384.808960,765.465637 1385.807495,748.896729 1387.604004,732.187378 
	C1388.000000,952.261780 1388.000000,1172.523560 1388.000000,1393.000000 
	C1159.645874,1393.000000 931.291565,1393.000000 702.468628,1393.000000 
z"/>
<path fill="#FFFFFF" opacity="1.000000" stroke="none" 
	d="
M1388.000000,660.531372 
	C1387.666748,659.840820 1387.137695,658.699585 1387.029785,657.519836 
	C1385.656738,642.493652 1384.348267,627.461670 1383.015625,612.431824 
	C1379.992798,578.338013 1372.773804,544.980042 1363.723022,512.110657 
	C1357.260620,488.641510 1349.604736,465.377594 1340.625488,442.758850 
	C1331.259888,419.166504 1320.307251,396.136597 1308.892700,373.442017 
	C1294.090698,344.012329 1276.650879,316.061920 1256.978882,289.609589 
	C1246.177490,275.084930 1234.915649,260.875214 1223.308105,246.985947 
	C1213.906372,235.736069 1203.875122,224.989349 1193.760132,214.364883 
	C1183.847900,203.953323 1174.106567,193.235550 1163.174072,183.968948 
	C1141.754517,165.813171 1119.904175,148.121109 1097.594482,131.071503 
	C1071.381470,111.038780 1042.886719,94.515785 1013.676331,79.210449 
	C986.984558,65.224861 959.612854,52.757168 931.085999,43.086426 
	C908.158081,35.313774 885.096313,27.756512 861.699829,21.601776 
	C842.606995,16.579184 823.001343,13.350381 803.492432,10.113756 
	C787.562927,7.470983 771.465942,5.745065 755.394714,4.080859 
	C744.097290,2.910989 732.718323,2.527299 721.187866,1.396274 
	C943.260071,1.000000 1165.520142,1.000000 1388.000000,1.000000 
	C1388.000000,220.687515 1388.000000,440.375092 1388.000000,660.531372 
z"/>
<path fill="#FFFFFF" opacity="1.000000" stroke="none" 
	d="
M1.000005,779.468628 
	C1.993702,784.501709 3.081104,789.988525 3.961246,795.508362 
	C5.703648,806.435730 6.694808,817.525940 9.138192,828.289673 
	C14.362344,851.303406 19.839109,874.282288 26.082239,897.036743 
	C34.649986,928.263733 46.666782,958.269165 60.230259,987.655396 
	C72.406441,1014.035889 85.546707,1039.919678 101.682114,1064.122925 
	C115.358955,1084.638184 129.176651,1105.087524 143.748734,1124.967529 
	C152.449951,1136.838257 162.445709,1147.809082 172.363480,1158.726685 
	C184.610519,1172.208252 196.796677,1185.838379 210.073349,1198.267578 
	C226.475723,1213.623047 243.514923,1228.386963 261.126038,1242.337280 
	C278.300934,1255.942017 296.047180,1268.968994 314.454285,1280.835327 
	C333.768860,1293.286865 353.916901,1304.520142 374.149994,1315.454468 
	C403.785492,1331.470093 434.874939,1344.217651 466.773468,1355.097534 
	C497.599701,1365.611816 528.875488,1374.301636 560.943054,1379.988525 
	C575.836914,1382.629761 590.789124,1385.057007 605.798645,1386.898438 
	C620.602234,1388.714844 635.496887,1389.877075 650.379456,1390.931885 
	C661.103882,1391.692139 671.874084,1391.805420 682.811951,1392.603516 
	C455.743408,1393.000000 228.486801,1393.000000 1.000000,1393.000000 
	C1.000000,1188.645874 1.000000,984.291565 1.000005,779.468628 
z"/>
<path fill="#FFFFFF" opacity="1.000000" stroke="none" 
	d="
M663.531372,1.000000 
	C662.674072,1.333224 661.364197,1.858757 660.019836,1.970428 
	C643.492065,3.343389 626.946838,4.517727 610.430481,6.012682 
	C576.193848,9.111554 542.571777,15.924337 509.592896,25.251713 
	C484.457611,32.360683 459.702820,41.020596 435.226776,50.186771 
	C417.081177,56.982208 399.386383,65.150223 381.967529,73.680313 
	C351.065552,88.813118 321.533722,106.464264 293.503784,126.384789 
	C275.706299,139.033249 258.650238,152.798599 241.901779,166.827255 
	C227.253189,179.097031 212.860214,191.808533 199.497177,205.444870 
	C178.922379,226.440491 159.349594,248.356293 141.415955,271.781555 
	C122.815742,296.077484 105.623840,321.266266 90.245819,347.635864 
	C74.331123,374.925690 60.592644,403.331268 48.573338,432.621674 
	C34.298817,467.407898 23.028940,503.104950 14.333980,539.600037 
	C10.351357,556.316223 7.935151,573.413696 5.042455,590.378052 
	C3.671358,598.419006 2.849308,606.553589 1.389257,614.822876 
	C1.000000,410.403442 1.000000,205.806885 1.000000,1.000000 
	C221.687515,1.000000 442.375092,1.000000 663.531372,1.000000 
z"/>
<path fill="#FDFDFD" opacity="1.000000" stroke="none" 
	d="
M683.689575,736.565674 
	C681.379395,763.497070 661.481567,780.304321 636.152527,783.845947 
	C625.177490,785.380615 613.908630,784.975281 602.768799,785.128418 
	C588.943909,785.318420 575.112366,785.041809 561.287903,785.248657 
	C556.733398,785.316833 555.095032,783.678589 555.102173,779.154541 
	C555.188354,724.677490 555.190796,670.200256 555.097229,615.723267 
	C555.089600,611.259399 556.624878,609.391846 561.172241,609.438843 
	C583.488586,609.669373 605.836426,609.071289 628.115601,610.060852 
	C649.494629,611.010498 667.942688,618.945007 678.159119,639.182312 
	C681.422058,645.645691 683.410095,653.419128 683.589111,660.652344 
	C684.211304,685.791321 683.783325,710.956238 683.689575,736.565674 
M646.985718,658.867310 
	C642.989685,647.037109 635.206116,640.557678 623.855652,640.233459 
	C614.203186,639.957703 604.535645,640.253174 594.876953,640.125671 
	C591.889038,640.086243 590.784363,641.060913 590.791199,644.143188 
	C590.869751,679.619690 590.873230,715.096558 590.788696,750.573059 
	C590.780823,753.895691 592.025391,754.925232 595.204895,754.875061 
	C604.030273,754.735840 612.860962,754.932007 621.686218,754.790344 
	C630.292053,754.652283 637.634216,751.661682 642.789978,744.425720 
	C646.917480,738.632935 648.185120,732.030701 648.171814,725.051697 
	C648.136169,706.397339 648.206604,687.742615 648.114075,669.088684 
	C648.098511,665.954834 647.480286,662.823975 646.985718,658.867310 
z"/>
<path fill="#FDFEFE" opacity="1.000000" stroke="none" 
	d="
M980.855530,764.086914 
	C983.600769,769.819031 986.213501,775.200134 988.816589,780.585876 
	C990.306641,783.668762 989.618530,785.232849 985.904053,785.199158 
	C976.243774,785.111450 966.580322,785.059692 956.922180,785.227844 
	C953.478271,785.287781 952.392944,783.162476 951.260498,780.641663 
	C941.867493,759.732971 932.319519,738.892456 923.129822,717.895020 
	C921.300354,713.714844 919.061707,712.034729 914.532776,712.424194 
	C909.903076,712.822388 905.201538,712.709839 900.551758,712.453491 
	C896.469482,712.228455 895.036926,713.592407 895.080566,717.855164 
	C895.284973,737.841492 895.174438,757.830994 895.169495,777.819397 
	C895.167725,785.113953 895.118958,785.161926 888.002014,785.169312 
	C880.339783,785.177185 872.674927,785.049438 865.016541,785.220581 
	C861.138611,785.307190 859.766602,783.827576 859.772522,779.932617 
	C859.856140,724.964722 859.864136,669.996521 859.759827,615.028687 
	C859.751831,610.816040 861.397095,609.429260 865.348633,609.458496 
	C890.327271,609.643066 915.322205,609.227112 940.281555,609.992554 
	C967.312927,610.821594 986.542603,631.092712 988.103271,658.105225 
	C989.629211,684.516296 976.068726,702.304504 957.322205,708.620850 
	C956.721497,708.823242 956.208984,709.287354 954.928345,710.078552 
	C963.537048,727.989624 972.128052,745.863708 980.855530,764.086914 
M912.502563,685.167725 
	C918.498596,685.166016 924.497864,685.290710 930.489990,685.136414 
	C943.341736,684.805603 952.515503,675.920837 952.835022,663.669434 
	C953.171448,650.771301 944.345276,640.811890 931.357178,640.273376 
	C920.549500,639.825256 909.708374,640.223572 898.883057,640.130615 
	C896.035156,640.106201 895.113037,641.301636 895.130493,644.030212 
	C895.210510,656.521423 895.221191,669.013855 895.125732,681.504883 
	C895.103699,684.389771 896.281128,685.299561 899.014099,685.204346 
	C903.172974,685.059448 907.340576,685.167236 912.502563,685.167725 
z"/>
<path fill="#FDFDFE" opacity="1.000000" stroke="none" 
	d="
M528.240967,660.462708 
	C528.822998,668.812256 528.498657,669.168884 520.704895,669.171997 
	C513.206238,669.174988 505.705872,669.077881 498.209686,669.213501 
	C494.744812,669.276245 493.132874,668.100952 492.788025,664.431396 
	C491.180817,647.327576 479.748779,637.670227 462.024841,638.174011 
	C446.203766,638.623718 434.384277,650.120911 434.109497,666.261353 
	C433.754974,687.084595 433.670044,707.927307 434.172791,728.744629 
	C434.467957,740.965698 440.867950,750.017395 452.490967,754.278320 
	C464.456360,758.664673 476.119324,757.894409 486.189117,749.125061 
	C492.528900,743.603943 493.441498,735.925781 493.463135,728.121887 
	C493.495178,716.544128 494.423798,718.283875 483.713989,718.182556 
	C477.882233,718.127380 472.046326,718.056091 466.218414,718.215149 
	C462.694183,718.311340 460.915894,717.083862 460.970856,713.368896 
	C461.066986,706.871521 461.035889,700.371399 460.980927,693.872986 
	C460.952972,690.570129 462.378296,688.971985 465.772675,688.978882 
	C485.102478,689.018005 504.433624,688.907104 523.760010,689.166687 
	C525.341431,689.187927 528.247253,691.595520 528.247864,692.895386 
	C528.255066,707.868225 529.220032,723.033813 527.193848,737.771973 
	C523.587097,764.007019 506.498352,780.830017 480.490204,785.667236 
	C462.394653,789.032898 444.553101,787.915100 428.111908,778.673462 
	C409.497894,768.210510 399.521271,751.814392 398.776886,730.695923 
	C397.996765,708.563904 397.674988,686.336670 398.803711,664.235352 
	C400.397736,633.022522 421.591064,611.678589 452.935638,608.200500 
	C472.546173,606.024353 491.220490,608.824951 507.303680,621.328430 
	C519.875183,631.101807 527.189453,643.917419 528.240967,660.462708 
z"/>
<path fill="#FDFDFE" opacity="1.000000" stroke="none" 
	d="
M796.316895,610.659729 
	C821.254639,615.689331 837.220276,635.737122 838.141541,660.715210 
	C839.472412,696.801819 813.059631,717.189270 782.228882,717.014587 
	C771.236267,716.952332 760.239807,717.156433 749.251831,716.921448 
	C745.468750,716.840515 744.410278,718.061462 744.443054,721.753357 
	C744.603027,739.740356 744.515503,757.729614 744.514832,775.718079 
	C744.514465,785.172852 744.513794,785.172852 734.832275,785.172913 
	C728.336426,785.172974 721.840576,785.189026 715.344788,785.168091 
	C709.241638,785.148499 708.835449,784.757874 708.833191,778.595520 
	C708.820618,744.617310 708.827026,710.639160 708.827087,676.660950 
	C708.827087,656.174133 708.880249,635.687012 708.780334,615.200684 
	C708.761658,611.371033 709.856323,609.107544 714.062561,609.150574 
	C739.864319,609.414612 765.666504,609.636047 791.468079,609.916199 
	C792.947876,609.932251 794.423401,610.339844 796.316895,610.659729 
M765.499390,688.490662 
	C770.493774,688.427856 775.516174,688.681213 780.477295,688.242126 
	C794.459045,687.004700 803.220032,677.268066 802.829163,663.781372 
	C802.434875,650.181458 792.672241,640.474426 778.801636,640.207886 
	C768.809204,640.015808 758.808350,640.271667 748.814758,640.112061 
	C745.536987,640.059692 744.432922,641.214966 744.461853,644.451477 
	C744.580872,657.778687 744.572449,671.107971 744.465576,684.435364 
	C744.441467,687.435608 745.439148,688.630554 748.507324,688.534363 
	C753.833374,688.367371 759.168457,688.489685 765.499390,688.490662 
z"/>
<path fill="#EFEB16" opacity="1.000000" stroke="none" 
	d="
M295.071777,983.854370 
	C298.879120,995.581665 302.583435,1006.922241 306.750854,1019.680603 
	C289.576691,1007.223694 273.545837,995.596069 257.178589,983.724487 
	C241.032776,995.438721 224.903931,1007.140625 207.684647,1019.633667 
	C210.525894,1010.794495 212.996155,1003.074402 215.489349,995.361755 
	C218.658768,985.557312 221.671753,975.696838 225.120804,965.991455 
	C226.345169,962.546082 225.756348,960.729248 222.780960,958.620483 
	C209.066055,948.899902 195.532227,938.923767 181.936661,929.034851 
	C180.627045,928.082214 179.339249,927.099609 177.164841,925.476868 
	C188.592484,925.476868 198.952591,925.476868 209.312698,925.476868 
	C217.307678,925.476807 225.312057,925.247498 233.293610,925.574829 
	C237.191452,925.734619 238.795258,924.307129 239.909531,920.721924 
	C245.184296,903.749878 250.711472,886.856323 256.170563,869.941833 
	C256.359467,869.356628 256.779724,868.846008 257.368164,867.818848 
	C263.287018,885.937866 269.137390,903.493103 274.683960,921.143738 
	C275.716248,924.428833 277.064362,925.587708 280.535156,925.555847 
	C298.984100,925.386780 317.435455,925.476318 337.254028,925.476318 
	C320.219299,937.880615 304.091705,949.624390 287.842590,961.456604 
	C290.273132,968.963928 292.620972,976.215820 295.071777,983.854370 
z"/>
<path fill="#EFEB15" opacity="1.000000" stroke="none" 
	d="
M473.287201,1144.398438 
	C473.092865,1146.453613 472.797638,1148.398682 473.335052,1150.077393 
	C478.653809,1166.690918 484.115479,1183.258667 489.514130,1199.846680 
	C489.803375,1200.735352 489.890839,1201.689941 490.206818,1203.298950 
	C473.635834,1191.275757 457.629852,1179.662476 441.204346,1167.744873 
	C425.013123,1179.482300 408.797089,1191.237549 391.632416,1203.680542 
	C395.874176,1190.627319 399.766846,1178.672485 403.642242,1166.712036 
	C405.537994,1160.861328 407.182465,1154.916504 409.369415,1149.177734 
	C410.510315,1146.184082 409.654449,1144.706177 407.292236,1143.012085 
	C393.495789,1133.117676 379.788818,1123.098633 366.059021,1113.111572 
	C364.765717,1112.170654 363.523773,1111.159302 361.348206,1109.477173 
	C370.371399,1109.477173 378.266602,1109.477173 386.161804,1109.477173 
	C396.155823,1109.477173 406.158356,1109.235596 416.140076,1109.585815 
	C420.683258,1109.745239 422.788696,1108.536377 424.181610,1103.922363 
	C429.125061,1087.546875 434.632111,1071.341309 439.937378,1055.075317 
	C440.231873,1054.172363 440.632080,1053.303833 441.299561,1051.621826 
	C447.302734,1069.964233 453.201782,1087.462402 458.661621,1105.096680 
	C459.809448,1108.803955 461.523865,1109.566895 464.981384,1109.541016 
	C483.276886,1109.404175 501.573944,1109.476929 521.314636,1109.476929 
	C504.779083,1121.491211 489.175903,1132.828003 473.287201,1144.398438 
z"/>
<path fill="#EFEB15" opacity="1.000000" stroke="none" 
	d="
M878.683472,1120.290771 
	C873.865723,1116.791138 869.341125,1113.500000 863.810364,1109.476929 
	C877.087646,1109.476929 889.130188,1109.476929 901.172668,1109.476807 
	C907.500977,1109.476807 913.837891,1109.279175 920.154236,1109.553589 
	C923.721619,1109.708740 925.406738,1108.610352 926.513550,1105.066406 
	C932.006653,1087.477661 937.801270,1069.983154 943.845215,1051.359863 
	C945.385193,1055.859863 946.674927,1059.472168 947.859924,1063.118408 
	C952.429932,1077.180298 957.083130,1091.217163 961.430847,1105.347778 
	C962.473633,1108.737305 964.147522,1109.578247 967.484741,1109.550293 
	C985.904175,1109.396362 1004.325562,1109.476685 1023.671509,1109.476685 
	C1021.979492,1110.855713 1020.952698,1111.777466 1019.842529,1112.584595 
	C1005.977234,1122.665527 992.154358,1132.806763 978.179199,1142.733154 
	C975.429932,1144.685913 974.715393,1146.282593 975.852844,1149.643921 
	C981.548889,1166.476929 986.915344,1183.421509 992.391174,1200.328857 
	C992.631470,1201.070801 992.808655,1201.833130 993.278442,1203.545288 
	C981.768250,1195.197144 971.038879,1187.417969 960.312439,1179.634766 
	C956.137329,1176.605225 951.759277,1173.809814 947.864380,1170.454224 
	C944.823364,1167.834351 942.782166,1168.368530 939.791199,1170.601074 
	C926.191589,1180.752197 912.389465,1190.631958 898.654785,1200.602051 
	C897.590088,1201.374878 896.484192,1202.091187 894.448975,1203.481812 
	C900.886597,1183.623535 907.010254,1164.733887 913.255554,1145.468872 
	C901.789612,1137.116699 890.383118,1128.807983 878.683472,1120.290771 
z"/>
<path fill="#EFEB16" opacity="1.000000" stroke="none" 
	d="
M1099.410767,1004.385559 
	C1092.571655,1009.370178 1086.017212,1014.135498 1078.403320,1019.671143 
	C1084.920044,999.554993 1091.046387,980.643860 1097.266846,961.442261 
	C1081.036255,949.634338 1064.931885,937.918335 1047.830444,925.476868 
	C1055.040649,925.476868 1061.074463,925.476868 1067.108154,925.476868 
	C1079.272461,925.476807 1091.443359,925.249817 1103.597778,925.597229 
	C1107.974731,925.722412 1109.635986,924.112305 1110.857666,920.182983 
	C1116.228027,902.907898 1121.896851,885.725708 1127.877075,867.210938 
	C1130.774780,875.945496 1133.321045,883.536194 1135.810425,891.145447 
	C1139.119507,901.259705 1142.562134,911.336060 1145.565674,921.541077 
	C1146.531372,924.822205 1148.127441,925.549805 1151.215698,925.531311 
	C1169.696655,925.420349 1188.178589,925.476318 1207.474243,925.476318 
	C1206.171875,926.609192 1205.347046,927.442200 1204.411621,928.123169 
	C1190.276245,938.414429 1176.172119,948.750183 1161.937500,958.902832 
	C1159.333496,960.760010 1158.759155,962.324097 1159.811035,965.455322 
	C1165.724731,983.058533 1171.355591,1000.756775 1177.474121,1019.629333 
	C1171.736572,1015.492126 1166.963501,1012.071350 1162.212646,1008.620056 
	C1151.840576,1001.085510 1141.417847,993.617920 1131.160034,985.930786 
	C1128.737915,984.115662 1127.118530,984.124573 1124.722046,985.928894 
	C1116.476807,992.136658 1108.051880,998.106018 1099.410767,1004.385559 
z"/>
<path fill="#F0EC15" opacity="1.000000" stroke="none" 
	d="
M643.918518,263.925110 
	C648.715393,248.732010 653.505737,233.536865 658.313843,218.347321 
	C659.417053,214.862091 660.581299,211.396179 661.899719,207.363968 
	C645.796082,195.640839 629.591309,183.844086 612.524353,171.419693 
	C614.754272,171.290985 615.970703,171.160446 617.187256,171.159653 
	C634.341187,171.148285 651.496399,171.044510 668.648010,171.243500 
	C672.365479,171.286621 674.077820,170.379333 675.253662,166.577896 
	C680.649292,149.135223 686.458984,131.820618 692.340027,113.785515 
	C693.050415,115.259811 693.598816,116.127838 693.905273,117.074188 
	C699.330872,133.828934 704.801697,150.569809 710.062622,167.376343 
	C711.044617,170.513336 712.640503,171.258804 715.759216,171.232712 
	C734.232544,171.078186 752.707825,171.156494 772.355103,171.156494 
	C770.651245,172.611923 769.706604,173.535599 768.649292,174.304337 
	C754.920471,184.286011 741.246948,194.346695 727.381409,204.135208 
	C724.177734,206.396790 723.350952,208.245224 724.690430,212.172501 
	C730.625122,229.572754 736.121460,247.122543 742.086975,265.578949 
	C729.482727,256.417236 717.708374,247.807007 705.872559,239.282181 
	C701.446899,236.094589 696.923645,230.789505 692.360962,230.699371 
	C688.077820,230.614761 683.650391,236.091873 679.345154,239.202927 
	C667.881348,247.486938 656.449158,255.814682 644.570557,264.126190 
	C644.136658,264.127319 643.918518,263.925110 643.918518,263.925110 
z"/>
<path fill="#F0ED15" opacity="1.000000" stroke="none" 
	d="
M140.303284,766.612671 
	C144.278503,754.836731 148.269562,743.066101 152.222183,731.282593 
	C154.177094,725.454651 155.874588,719.532043 158.055267,713.791565 
	C159.161377,710.879822 158.433243,709.412537 156.019913,707.685669 
	C140.857178,696.835449 125.810638,685.822876 109.988586,674.328491 
	C130.590012,674.328491 150.430099,674.328491 170.760773,674.328491 
	C177.052338,655.021118 183.250671,635.999878 189.787552,615.939636 
	C191.692825,621.648926 193.331131,626.456238 194.902069,631.285461 
	C199.067688,644.090820 203.413071,656.843994 207.223145,669.754822 
	C208.344864,673.555908 210.245514,674.075134 213.594925,674.053345 
	C231.920151,673.934204 250.246552,673.996582 269.443512,673.996582 
	C268.032440,675.250244 267.222626,676.099915 266.289032,676.779663 
	C252.154663,687.071228 238.055878,697.413330 223.811157,707.550293 
	C221.153549,709.441528 220.681366,711.037415 221.718643,714.134094 
	C227.622391,731.759155 233.261932,749.472778 239.343628,768.243713 
	C233.262405,763.852112 227.999100,760.065613 222.751007,756.258240 
	C212.913712,749.121216 203.025543,742.051819 193.293716,734.773621 
	C190.764786,732.882263 189.084747,732.752136 186.409393,734.739685 
	C172.511261,745.064636 158.425842,755.137695 144.379822,765.262695 
	C143.358109,765.999146 142.131607,766.451599 140.695160,766.837219 
	C140.389984,766.638306 140.303284,766.612671 140.303284,766.612671 
z"/>
<path fill="#F1ED15" opacity="1.000000" stroke="none" 
	d="
M1146.347656,766.467896 
	C1151.975464,749.069702 1157.501099,731.637207 1163.321533,714.303711 
	C1164.427612,711.009949 1163.859985,709.355835 1161.061279,707.366821 
	C1146.810669,697.239197 1132.727661,686.875916 1118.589722,676.589966 
	C1117.824341,676.033081 1117.093262,675.429138 1115.254639,673.996887 
	C1119.013672,673.996887 1121.577026,673.996887 1124.140381,673.996887 
	C1139.802856,673.996887 1155.469849,673.790588 1171.125122,674.128357 
	C1175.551880,674.223938 1176.982422,672.543701 1178.170044,668.701172 
	C1183.370361,651.875244 1188.883545,635.145813 1194.312622,618.390991 
	C1194.507690,617.788818 1195.010498,617.286316 1195.518555,616.510376 
	C1201.759766,635.690674 1207.918579,654.617859 1214.171509,673.834229 
	C1234.155396,673.834229 1254.093262,673.834229 1274.031006,673.834229 
	C1274.178589,674.143250 1274.326050,674.452209 1274.473633,674.761230 
	C1258.345947,686.502380 1242.218384,698.243530 1225.956055,710.082764 
	C1232.112305,729.074524 1238.189331,747.821899 1244.643311,767.732117 
	C1242.621948,766.479370 1241.568359,765.914551 1240.609375,765.219177 
	C1226.862915,755.250732 1213.066040,745.349426 1199.441772,735.216492 
	C1196.460083,732.998901 1194.456543,732.722534 1191.291504,735.090881 
	C1176.895264,745.863098 1162.265381,756.323120 1147.217041,766.821228 
	C1146.714355,766.747009 1146.347656,766.467896 1146.347656,766.467896 
z"/>
<path fill="#F0ED15" opacity="1.000000" stroke="none" 
	d="
M644.323364,1270.730103 
	C644.487732,1269.011475 644.351318,1267.197266 644.862976,1265.589111 
	C650.002930,1249.433350 655.122681,1233.268433 660.564819,1217.213501 
	C661.757202,1213.695679 660.931580,1211.949707 658.105225,1209.932007 
	C643.215698,1199.302368 628.456360,1188.490479 612.922363,1177.212158 
	C615.019226,1177.045410 616.377136,1176.845215 617.735352,1176.843506 
	C634.730957,1176.821899 651.727966,1176.711060 668.721008,1176.919067 
	C672.557068,1176.965820 674.114807,1175.755005 675.261230,1172.064941 
	C680.719604,1154.497192 686.546509,1137.044067 692.557190,1118.582642 
	C697.588135,1134.035034 702.274780,1148.561279 707.061340,1163.054443 
	C708.556885,1167.583130 709.113770,1173.624146 712.314026,1176.038696 
	C715.327454,1178.312378 721.257324,1176.801880 725.904541,1176.814209 
	C741.012878,1176.854126 756.121460,1176.829224 772.655212,1176.829224 
	C763.963623,1183.159546 756.395813,1188.683716 748.814697,1194.189575 
	C741.404968,1199.571045 734.048584,1205.030273 726.527893,1210.252563 
	C723.919739,1212.063721 723.376221,1213.763916 724.395813,1216.837646 
	C730.255798,1234.502930 735.878052,1252.247192 741.206909,1270.211182 
	C740.832886,1270.457764 740.836548,1270.385986 740.836548,1270.385986 
	C724.791199,1258.609619 708.745850,1246.833252 692.588257,1234.974609 
	C676.453613,1246.770142 660.521057,1258.417969 644.438599,1270.355957 
	C644.288757,1270.646240 644.323303,1270.730103 644.323364,1270.730103 
z"/>
<path fill="#F1ED15" opacity="1.000000" stroke="none" 
	d="
M259.974426,372.980743 
	C265.412567,389.781494 270.763397,406.199127 276.212158,422.917236 
	C296.142792,422.917236 315.873840,422.917236 337.041840,422.917236 
	C326.578156,430.522949 317.243561,437.307465 307.909607,444.092773 
	C302.255341,448.203125 296.696045,452.454132 290.904724,456.361267 
	C288.384033,458.061829 287.967163,459.564148 288.939545,462.459015 
	C294.548157,479.156158 299.907532,495.937073 305.346466,512.691162 
	C305.643860,513.607178 305.897675,514.537292 306.569916,516.802490 
	C289.478271,504.410522 273.440735,492.782837 257.166962,480.983856 
	C240.970093,492.739807 224.837189,504.449341 207.641525,516.930237 
	C210.534088,508.006134 213.060196,500.222290 215.579895,492.436340 
	C218.751114,482.637177 221.711090,472.762299 225.192307,463.074646 
	C226.484497,459.478760 225.496841,457.813293 222.644897,455.786133 
	C209.077286,446.142242 195.667328,436.276489 182.201599,426.489227 
	C180.916626,425.555267 179.633820,424.618378 177.178528,422.829193 
	C183.273880,422.829193 188.008316,422.829163 192.742752,422.829163 
	C206.401184,422.829132 220.062042,422.688751 233.716354,422.925995 
	C237.210022,422.986725 238.659729,421.840454 239.672333,418.620605 
	C245.005280,401.663208 250.547180,384.771484 256.028564,367.860870 
	C256.275024,367.100464 256.638245,366.377930 257.268311,364.867767 
	C258.303406,367.923065 259.095245,370.260345 259.974426,372.980743 
z"/>
<path fill="#F0ED15" opacity="1.000000" stroke="none" 
	d="
M1155.785645,501.194885 
	C1146.350586,494.351807 1137.212891,487.709198 1127.941650,480.969574 
	C1111.744629,492.729614 1095.748413,504.343872 1078.578735,516.810181 
	C1079.435547,513.899414 1079.902832,512.153687 1080.461792,510.437744 
	C1085.505737,494.954803 1090.411743,479.423950 1095.721802,464.032654 
	C1097.173828,459.823700 1096.263428,457.676880 1092.688843,455.175140 
	C1078.916138,445.536133 1065.402588,435.526855 1051.795410,425.651337 
	C1050.917114,425.013855 1050.064697,424.340424 1048.239868,422.953979 
	C1069.197632,422.953979 1088.916016,422.953979 1108.894043,422.953979 
	C1115.156006,403.709839 1121.320190,384.765747 1127.736694,365.046387 
	C1128.407227,366.565277 1128.900146,367.465881 1129.214233,368.425018 
	C1134.747925,385.321014 1140.362549,402.191925 1145.680420,419.155762 
	C1146.633667,422.196381 1148.041382,422.902618 1150.952393,422.885132 
	C1169.426758,422.774353 1187.902344,422.828857 1207.341797,422.828857 
	C1205.796387,424.151825 1204.946655,424.985168 1203.994873,425.678192 
	C1189.998535,435.868256 1176.030151,446.097656 1161.944336,456.162567 
	C1159.385986,457.990479 1158.721680,459.503723 1159.799683,462.684570 
	C1165.559937,479.679779 1170.998169,496.784119 1176.538330,513.853760 
	C1176.730957,514.447266 1176.824341,515.072937 1177.201294,516.720154 
	C1169.640991,511.233887 1162.861938,506.314636 1155.785645,501.194885 
z"/>
<path fill="#F1ED15" opacity="1.000000" stroke="none" 
	d="
M912.866699,276.008850 
	C911.754700,274.370941 910.715271,272.884949 909.330383,271.870544 
	C894.690918,261.147552 879.996460,250.499695 864.345032,239.124695 
	C885.123108,239.124695 904.894104,239.124695 924.817383,239.124695 
	C931.155518,219.652863 937.323608,200.703293 943.735352,181.005280 
	C944.365295,182.469955 944.838135,183.370361 945.149597,184.323486 
	C950.673523,201.227859 956.256226,218.113907 961.611206,235.071777 
	C962.531555,237.986343 963.827209,238.921249 966.854309,238.898453 
	C985.346008,238.759216 1003.839294,238.828857 1023.274597,238.828857 
	C1021.792480,240.119064 1020.963074,240.957047 1020.022583,241.642395 
	C1006.163025,251.741165 992.348083,261.903259 978.369385,271.834625 
	C975.477600,273.889099 974.679810,275.569366 975.896667,279.128174 
	C981.704041,296.112152 987.156128,313.217682 992.717163,330.285645 
	C992.859619,330.722900 992.802002,331.225403 992.898560,332.502045 
	C976.353455,320.494507 960.294556,308.839783 943.932922,296.965363 
	C927.759216,308.699402 911.639954,320.393982 894.350708,332.937347 
	C900.777161,313.213989 906.778076,294.796814 912.866699,276.008850 
z"/>
<path fill="#F1ED15" opacity="1.000000" stroke="none" 
	d="
M409.440063,273.959656 
	C393.572876,262.374969 378.003632,251.035141 361.663055,239.133499 
	C363.859558,238.998306 365.233673,238.841522 366.607910,238.840149 
	C383.430206,238.823242 400.255585,238.654343 417.072601,238.952316 
	C421.263367,239.026581 422.792297,237.554565 423.960266,233.817841 
	C429.114105,217.329041 434.557556,200.930756 439.912384,184.504990 
	C440.254150,183.456650 440.733490,182.453156 441.353271,180.924744 
	C447.749115,200.576431 453.946747,219.619110 460.244934,238.970840 
	C480.211548,238.970840 499.924744,238.970840 520.970947,238.970840 
	C510.541473,246.547699 501.188141,253.340378 491.837524,260.136841 
	C486.183716,264.246307 480.642914,268.524567 474.833496,272.400574 
	C472.213776,274.148438 472.033264,275.733490 472.971497,278.536530 
	C478.561829,295.237976 483.941040,312.010162 489.383942,328.760925 
	C489.678131,329.666260 489.906647,330.592926 490.517151,332.753082 
	C473.479767,320.394379 457.426941,308.749908 441.184723,296.968018 
	C424.916687,308.776337 408.783997,320.486420 391.632690,332.935883 
	C395.875153,319.901245 399.761780,307.982483 403.632355,296.058502 
	C405.582520,290.050629 407.548248,284.047058 409.399567,278.008606 
	C409.764618,276.817902 409.637909,275.476440 409.440063,273.959656 
z"/>
<path fill="#F1ED15" opacity="1.000000" stroke="none" 
	d="
M1146.884033,766.902832 
	C1146.860352,767.299561 1146.667236,767.540527 1146.473999,767.781433 
	C1146.364014,767.493225 1146.254150,767.205078 1146.245850,766.692383 
	C1146.347656,766.467896 1146.714355,766.747009 1146.884033,766.902832 
z"/>
<path fill="#F0ED15" opacity="1.000000" stroke="none" 
	d="
M140.348846,766.616638 
	C140.407608,766.694031 140.499283,766.803711 140.609726,766.889221 
	C140.720001,766.974670 140.849030,767.035889 140.969849,767.107666 
	C140.858078,767.044922 140.746307,766.982178 140.468903,766.765991 
	C140.303284,766.612671 140.389984,766.638306 140.348846,766.616638 
z"/>
<path fill="#F0EC15" opacity="1.000000" stroke="none" 
	d="
M644.246033,264.228119 
	C644.106384,264.486633 643.857300,264.644379 643.608276,264.802094 
	C643.561096,264.550629 643.513916,264.299164 643.692627,263.986389 
	C643.918518,263.925110 644.136658,264.127319 644.246033,264.228119 
z"/>
<path fill="#F0ED15" opacity="1.000000" stroke="none" 
	d="
M644.303467,1270.685913 
	C644.149170,1270.455688 643.980103,1270.185913 643.811035,1269.916138 
	C643.898254,1270.047974 643.985413,1270.179810 644.197998,1270.520874 
	C644.323303,1270.730103 644.288757,1270.646240 644.303467,1270.685913 
z"/>
<path fill="#F0ED15" opacity="1.000000" stroke="none" 
	d="
M740.826782,1270.493164 
	C741.043701,1270.282837 741.266663,1270.037354 741.489685,1269.791870 
	C741.434509,1270.014526 741.379395,1270.237061 741.080444,1270.422852 
	C740.836548,1270.385986 740.832886,1270.457764 740.826782,1270.493164 
z"/>
<path fill="#2A337B" opacity="1.000000" stroke="none" 
	d="
M647.063110,659.279541 
	C647.480286,662.823975 648.098511,665.954834 648.114075,669.088684 
	C648.206604,687.742615 648.136169,706.397339 648.171814,725.051697 
	C648.185120,732.030701 646.917480,738.632935 642.789978,744.425720 
	C637.634216,751.661682 630.292053,754.652283 621.686218,754.790344 
	C612.860962,754.932007 604.030273,754.735840 595.204895,754.875061 
	C592.025391,754.925232 590.780823,753.895691 590.788696,750.573059 
	C590.873230,715.096558 590.869751,679.619690 590.791199,644.143188 
	C590.784363,641.060913 591.889038,640.086243 594.876953,640.125671 
	C604.535645,640.253174 614.203186,639.957703 623.855652,640.233459 
	C635.206116,640.557678 642.989685,647.037109 647.063110,659.279541 
z"/>
<path fill="#2B347C" opacity="1.000000" stroke="none" 
	d="
M912.003540,685.167725 
	C907.340576,685.167236 903.172974,685.059448 899.014099,685.204346 
	C896.281128,685.299561 895.103699,684.389771 895.125732,681.504883 
	C895.221191,669.013855 895.210510,656.521423 895.130493,644.030212 
	C895.113037,641.301636 896.035156,640.106201 898.883057,640.130615 
	C909.708374,640.223572 920.549500,639.825256 931.357178,640.273376 
	C944.345276,640.811890 953.171448,650.771301 952.835022,663.669434 
	C952.515503,675.920837 943.341736,684.805603 930.489990,685.136414 
	C924.497864,685.290710 918.498596,685.166016 912.003540,685.167725 
z"/>
<path fill="#2A337B" opacity="1.000000" stroke="none" 
	d="
M764.999573,688.490723 
	C759.168457,688.489685 753.833374,688.367371 748.507324,688.534363 
	C745.439148,688.630554 744.441467,687.435608 744.465576,684.435364 
	C744.572449,671.107971 744.580872,657.778687 744.461853,644.451477 
	C744.432922,641.214966 745.536987,640.059692 748.814758,640.112061 
	C758.808350,640.271667 768.809204,640.015808 778.801636,640.207886 
	C792.672241,640.474426 802.434875,650.181458 802.829163,663.781372 
	C803.220032,677.268066 794.459045,687.004700 780.477295,688.242126 
	C775.516174,688.681213 770.493774,688.427856 764.999573,688.490723 
z"/>
</svg>